<?xml version="1.0" standalone="no"?>
<!DOCTYPE svg PUBLIC "-//W3C//DTD SVG 20010904//EN"
 "http://www.w3.org/TR/2001/REC-SVG-20010904/DTD/svg10.dtd">
<svg version="1.0" xmlns="http://www.w3.org/2000/svg"
 width="400.000000pt" height="400.000000pt" viewBox="0 0 400.000000 400.000000"
 preserveAspectRatio="xMidYMid meet">

<g transform="translate(0.000000,400.000000) scale(0.100000,-0.100000)"
fill="#000000" stroke="none">
<path d="M609 3093 c-29 -77 -41 -257 -35 -538 3 -154 10 -325 15 -381 5 -55
15 -165 21 -245 19 -262 62 -436 146 -599 173 -335 488 -536 930 -595 130 -17
472 -20 612 -4 320 35 583 150 773 338 193 193 297 442 329 786 33 369 40 507
40 772 0 281 -15 462 -40 487 -28 28 -329 -161 -603 -381 -70 -57 -131 -103
-136 -103 -4 0 -41 15 -82 34 -97 45 -243 91 -354 111 -68 13 -128 16 -254 13
-195 -5 -291 -26 -496 -109 l-126 -51 -29 23 c-287 231 -490 374 -615 434 -40
19 -75 35 -79 35 -3 0 -11 -12 -17 -27z"/>
</g>
</svg>
