<?xml version="1.0" standalone="no"?>
<!DOCTYPE svg PUBLIC "-//W3C//DTD SVG 20010904//EN"
 "http://www.w3.org/TR/2001/REC-SVG-20010904/DTD/svg10.dtd">
<svg version="1.0" xmlns="http://www.w3.org/2000/svg"
 width="1002.000000pt" height="130.000000pt" viewBox="0 0 1002.000000 130.000000"
 preserveAspectRatio="xMidYMid meet">

<g transform="translate(0.000000,130.000000) scale(0.100000,-0.100000)"
fill="#000000" stroke="none">
<path d="M489 1268 c-40 -29 -50 -32 -106 -29 -75 3 -133 -19 -187 -74 -201
-201 -262 -676 -110 -862 84 -102 214 -109 322 -18 44 37 103 118 152 207 l38
71 6 -34 c3 -19 7 -53 10 -77 5 -52 29 -82 66 -82 39 0 47 15 54 110 7 105 36
210 80 299 56 110 120 162 142 114 4 -10 9 -114 11 -232 2 -227 9 -268 50
-313 73 -77 167 -48 214 67 12 30 12 30 20 -29 10 -69 22 -86 58 -86 56 0 60
11 63 181 l3 156 38 75 c44 87 117 175 135 164 7 -4 23 -28 36 -54 65 -128
122 -175 202 -169 l50 3 2 -82 c1 -135 46 -210 123 -208 30 1 49 9 71 30 34
32 100 162 120 237 6 26 15 47 18 47 3 0 17 -21 32 -48 l26 -47 -43 -47 c-49
-54 -75 -120 -75 -189 0 -40 6 -55 31 -83 36 -41 78 -52 136 -37 50 14 88 43
110 84 23 45 21 139 -6 212 -12 33 -24 67 -27 76 -4 12 23 30 108 73 l113 57
8 -112 c9 -134 17 -170 55 -230 62 -97 160 -103 228 -13 25 32 28 34 37 17 66
-124 200 -99 252 47 22 62 35 197 26 268 l-8 64 26 -6 c14 -3 49 -9 76 -12
l50 -6 0 -272 c0 -325 7 -400 39 -422 18 -11 30 -12 50 -5 l26 11 0 237 c0
288 9 353 55 442 60 114 158 211 199 195 8 -3 20 -21 26 -40 14 -40 16 -173 3
-183 -4 -4 -29 -15 -55 -25 -25 -9 -67 -35 -93 -58 -81 -71 -96 -129 -46 -179
32 -32 53 -35 113 -17 78 23 172 139 193 235 6 29 11 33 63 43 31 7 67 14 80
17 22 5 22 3 22 -83 1 -132 15 -232 35 -254 20 -22 67 -26 82 -8 6 7 13 51 17
98 7 105 36 210 80 299 56 110 120 161 142 114 5 -10 9 -113 10 -230 2 -227 9
-270 51 -315 74 -79 167 -48 215 71 l14 34 27 -37 c37 -48 75 -66 137 -66 89
0 157 48 230 161 l37 58 7 -101 c9 -125 24 -168 61 -168 15 0 35 5 46 10 17
10 19 22 19 149 0 165 11 210 78 312 53 81 85 114 100 105 6 -3 25 -32 42 -64
69 -121 116 -162 187 -162 44 0 116 38 121 63 5 23 -25 22 -63 -3 -37 -25 -67
-25 -88 -2 -8 9 -30 55 -48 102 -39 103 -72 140 -125 140 -50 0 -89 -32 -149
-119 -27 -39 -49 -70 -50 -68 -1 1 3 39 8 84 12 91 4 113 -39 113 -52 0 -75
-49 -93 -197 -11 -87 -29 -132 -91 -223 -59 -85 -111 -131 -157 -137 -35 -5
-42 -2 -65 26 -27 31 -43 106 -36 165 3 25 10 31 60 46 133 41 208 114 208
203 0 42 -5 54 -33 82 -50 50 -111 56 -185 19 -45 -23 -66 -42 -99 -92 -54
-80 -73 -145 -73 -248 0 -121 -51 -244 -100 -244 -35 0 -39 31 -37 251 2 201
1 217 -20 261 -27 59 -67 82 -133 76 -69 -7 -112 -44 -161 -142 l-41 -81 7 85
c7 89 42 353 51 382 6 21 -29 58 -55 58 -11 0 -28 -11 -39 -25 -31 -39 -69
-213 -87 -396 l-6 -66 -42 -6 c-23 -4 -57 -9 -74 -13 l-33 -7 0 59 c-1 118
-57 184 -157 184 -43 0 -59 -6 -95 -33 -24 -18 -62 -61 -85 -96 -48 -70 -48
-69 -31 31 10 65 10 72 -7 84 -51 38 -95 0 -118 -102 -9 -36 -18 -68 -21 -71
-8 -8 -134 26 -179 49 l-38 19 22 30 22 31 -21 21 c-19 18 -25 19 -60 9 -99
-30 -190 -208 -206 -405 -6 -70 -23 -116 -59 -155 -39 -43 -68 -18 -93 78 -20
80 -23 302 -4 442 l12 97 62 3 c55 3 61 5 64 26 3 21 0 22 -57 22 l-60 0 5 33
c4 17 10 50 15 72 14 71 -35 111 -81 65 -11 -11 -30 -53 -42 -94 l-21 -74 -49
-4 c-55 -6 -63 -11 -55 -33 5 -10 20 -15 53 -15 37 0 45 -3 40 -15 -3 -9 -9
-59 -12 -111 -4 -53 -12 -100 -18 -105 -6 -6 -65 -36 -131 -69 -136 -66 -124
-68 -173 25 -36 70 -38 168 -3 196 13 10 34 19 46 19 37 0 83 -46 98 -98 24
-82 64 -62 48 23 -17 89 -71 135 -159 135 -123 0 -199 -99 -171 -225 11 -50
10 -59 -21 -148 -54 -156 -102 -229 -132 -199 -20 20 -22 182 -4 291 18 114
12 131 -43 131 -48 0 -57 -11 -74 -86 -15 -66 -44 -92 -89 -81 -22 6 -32 22
-64 104 -45 116 -76 153 -130 153 -50 0 -89 -32 -149 -119 -27 -39 -49 -70
-50 -68 -1 1 3 40 9 86 9 77 8 84 -9 97 -43 31 -86 4 -105 -66 -6 -23 -17
-105 -25 -183 -19 -195 -67 -327 -122 -335 -38 -6 -42 23 -40 249 2 201 1 217
-20 261 -27 59 -67 82 -133 76 -69 -7 -112 -44 -160 -140 -33 -66 -40 -75 -40
-51 0 36 36 329 49 398 11 58 2 82 -36 91 -40 10 -66 -28 -92 -132 -27 -114
-39 -194 -47 -324 -6 -101 -9 -109 -57 -204 -60 -117 -154 -246 -205 -281
-114 -77 -202 19 -218 235 -11 154 21 336 82 470 50 108 116 170 179 170 l27
0 -21 -34 c-28 -45 -51 -122 -51 -173 0 -55 38 -103 82 -103 92 0 170 135 138
236 -7 22 -25 55 -41 75 l-28 37 40 31 c37 31 43 51 15 51 -7 0 -33 -14 -57
-32z m-9 -187 c-1 -92 -51 -184 -81 -154 -16 16 3 127 32 193 19 43 21 44 35
26 8 -11 14 -40 14 -65z m4452 -188 c41 -37 11 -119 -63 -173 -39 -28 -108
-55 -117 -45 -13 13 53 180 86 218 19 22 70 22 94 0z m-1812 -129 c15 -39 12
-213 -5 -279 -19 -72 -44 -109 -77 -113 -18 -2 -27 4 -36 23 -29 64 2 301 49
366 26 36 56 38 69 3z m585 -161 c-19 -64 -86 -143 -123 -143 -55 0 -45 90 16
140 38 32 113 72 120 65 2 -2 -4 -30 -13 -62z m-1425 -120 c28 -75 24 -152
-10 -188 -27 -29 -65 -32 -92 -8 -38 35 -13 170 44 231 12 12 25 22 29 22 4 0
17 -26 29 -57z"/>
<path d="M6335 1236 c-46 -33 -52 -35 -110 -29 -53 5 -71 2 -118 -20 -79 -36
-120 -71 -185 -157 -160 -211 -244 -536 -179 -692 20 -48 72 -96 118 -108 105
-29 195 34 344 242 l63 88 6 -43 c4 -24 3 -52 0 -63 -4 -10 -41 -55 -81 -99
-86 -93 -133 -179 -135 -248 -1 -67 21 -97 73 -97 129 0 229 149 254 381 l6
56 62 31 62 30 17 -31 c23 -46 71 -71 120 -64 54 7 108 47 160 118 l43 60 8
-63 c14 -108 69 -188 130 -188 38 0 78 35 105 92 15 31 30 57 33 57 4 1 9 -12
12 -29 8 -39 70 -106 105 -113 70 -14 139 37 193 144 l31 62 24 -59 c15 -37
40 -74 68 -101 38 -37 51 -43 87 -43 36 0 47 6 82 42 47 49 90 135 113 228
l18 67 34 -10 c28 -9 32 -14 27 -31 -14 -41 -17 -155 -6 -188 6 -19 25 -48 42
-64 55 -53 140 -34 220 49 23 23 53 65 68 94 l27 53 12 -82 c20 -123 57 -174
138 -185 85 -11 154 84 218 302 35 115 38 122 89 168 70 65 161 109 228 111
31 0 54 -4 56 -10 2 -7 -84 -110 -192 -230 -107 -121 -198 -230 -201 -242 -4
-15 -1 -30 10 -40 14 -14 39 -17 154 -16 118 0 145 3 195 23 54 21 78 43 63
58 -3 4 -31 -1 -62 -11 -63 -20 -234 -34 -234 -20 0 6 21 30 46 54 82 80 325
361 335 388 27 72 -29 107 -161 100 -96 -6 -169 -35 -240 -96 -53 -45 -80 -92
-135 -242 -118 -318 -190 -333 -188 -40 2 163 36 384 90 578 17 63 17 64 -2
78 -11 8 -33 14 -50 12 -25 -3 -34 -12 -57 -58 -24 -47 -64 -176 -82 -260 -5
-24 -7 -25 -94 -25 -81 0 -92 -3 -132 -29 -55 -36 -87 -71 -112 -121 -11 -22
-22 -41 -23 -43 -2 -2 -19 4 -39 12 -33 14 -36 18 -29 43 4 15 7 69 7 118 1
138 -44 205 -137 205 -42 0 -82 -34 -93 -77 -19 -76 25 -182 104 -253 l53 -47
-27 -84 c-48 -152 -93 -221 -132 -200 -35 19 -91 201 -92 297 0 56 -26 88 -62
79 -31 -8 -34 -15 -48 -102 -15 -92 -65 -207 -111 -255 -32 -34 -40 -38 -58
-29 -12 7 -23 26 -27 47 -11 61 3 264 25 362 24 103 19 127 -26 138 -21 6 -31
2 -49 -20 -29 -33 -59 -129 -73 -231 -12 -81 -48 -200 -81 -266 -22 -42 -52
-52 -65 -22 -19 46 -17 224 5 383 12 88 19 167 16 175 -10 27 -63 18 -87 -14
-19 -26 -25 -28 -53 -20 -111 32 -241 -33 -301 -151 -31 -61 -55 -149 -55
-202 -1 -43 -1 -43 -60 -70 -33 -15 -60 -26 -60 -25 -17 189 -26 217 -68 217
-37 0 -43 -6 -81 -75 -86 -154 -213 -311 -270 -335 -99 -40 -152 48 -131 218
24 188 146 461 252 558 50 47 80 64 109 64 l27 0 -40 -77 c-57 -112 -63 -188
-18 -233 48 -48 133 -12 175 74 24 48 27 65 23 125 -3 52 -9 78 -26 100 l-22
30 33 24 c17 13 44 32 60 42 35 22 34 35 -1 35 -16 0 -49 -15 -77 -34z m-51
-142 c21 -54 -2 -161 -44 -207 -25 -27 -31 -30 -40 -17 -14 21 -12 48 6 111
17 57 53 129 65 129 4 0 10 -7 13 -16z m1504 -67 c13 -13 27 -39 32 -58 11
-38 12 -131 1 -168 -6 -23 -7 -23 -43 17 -51 57 -71 99 -72 153 -2 75 39 102
82 56z m-924 -168 c19 -18 19 -19 -3 -101 -24 -90 -63 -158 -131 -225 -68 -69
-100 -53 -100 50 0 117 66 252 140 289 38 19 65 16 94 -13z m1380 -31 c14 -6
28 -20 32 -30 8 -26 -13 -111 -43 -176 -24 -51 -138 -182 -158 -182 -32 1 -40
20 -39 102 0 99 26 173 81 237 50 59 81 71 127 49z m-1985 -523 c-23 -125 -86
-235 -135 -235 -21 0 -17 66 7 119 19 44 127 186 135 178 2 -2 -1 -30 -7 -62z"/>
<path d="M9567 1233 c-31 -35 -72 -238 -86 -430 -10 -122 -42 -236 -94 -328
-31 -56 -62 -59 -76 -8 -15 53 -14 110 5 245 19 133 15 148 -41 148 -47 0 -64
-26 -82 -127 -32 -185 -3 -327 73 -359 64 -27 118 7 168 106 l35 70 5 -42 c3
-24 8 -75 11 -115 7 -98 19 -123 61 -123 61 0 65 13 58 183 l-7 152 58 -53
c67 -61 94 -77 152 -87 58 -9 108 16 145 74 46 73 78 206 49 206 -9 0 -23 -27
-37 -73 -29 -95 -64 -148 -104 -157 -58 -13 -91 4 -167 82 -40 41 -73 80 -73
86 1 7 26 32 57 57 79 64 151 153 191 238 27 57 32 75 22 86 -19 24 -35 9 -76
-67 -33 -61 -190 -244 -200 -234 -6 6 25 279 41 366 15 77 15 85 -1 102 -21
24 -66 25 -87 2z"/>
<path d="M1931 1081 c-6 -11 -11 -36 -11 -55 0 -38 20 -56 60 -56 25 0 53 57
48 99 -3 23 -8 26 -45 29 -33 2 -44 -1 -52 -17z"/>
<path d="M9281 1087 c-22 -27 -25 -76 -6 -97 21 -24 58 -26 75 -5 15 18 30 83
23 101 -7 18 -77 18 -92 1z"/>
</g>
</svg>
