<?xml version="1.0" standalone="no"?>
<!DOCTYPE svg PUBLIC "-//W3C//DTD SVG 20010904//EN"
 "http://www.w3.org/TR/2001/REC-SVG-20010904/DTD/svg10.dtd">
<svg version="1.0" xmlns="http://www.w3.org/2000/svg"
 width="1150.000000pt" height="465.000000pt" viewBox="0 0 1150.000000 465.000000"
 preserveAspectRatio="xMidYMid meet">

<g transform="translate(0.000000,465.000000) scale(0.100000,-0.100000)"
fill="#000000" stroke="none">
<path d="M2025 4039 c-397 -36 -797 -230 -1063 -513 -63 -67 -166 -199 -202
-257 -44 -73 -149 -298 -174 -374 -63 -195 -70 -251 -70 -510 0 -212 2 -252
22 -340 85 -383 285 -712 577 -950 176 -143 469 -295 570 -295 77 0 93 54 80
264 l-7 117 -42 -7 c-86 -15 -228 -7 -296 16 -115 39 -170 92 -238 229 -47 95
-92 149 -197 236 -45 38 -47 42 -31 58 23 22 106 23 154 0 59 -27 120 -81 177
-157 29 -39 66 -83 81 -97 81 -75 208 -98 331 -61 l68 21 22 72 c13 39 37 88
53 109 l31 39 -38 6 c-159 26 -288 66 -383 118 -71 40 -198 166 -237 237 -90
163 -129 438 -87 619 16 75 76 199 123 258 l29 38 -15 70 c-24 110 -5 301 36
364 29 45 271 -30 418 -130 43 -28 50 -30 82 -20 185 55 533 57 747 5 l62 -15
58 37 c132 84 285 140 368 132 38 -3 40 -5 59 -58 26 -75 34 -254 13 -330
l-14 -55 33 -41 c83 -100 126 -222 132 -374 12 -271 -55 -485 -197 -628 -126
-126 -236 -173 -538 -228 -23 -5 -22 -5 8 -42 16 -21 40 -65 52 -97 20 -55 22
-84 27 -368 6 -294 7 -309 26 -324 82 -61 477 139 712 361 555 524 679 1361
301 2029 -268 473 -762 788 -1313 837 -124 11 -180 11 -310 -1z"/>
<path d="M5138 3240 c-67 -11 -170 -47 -226 -78 -63 -35 -161 -134 -199 -202
-43 -78 -79 -189 -98 -308 -24 -145 -16 -432 15 -546 84 -311 273 -459 616
-485 198 -15 390 16 526 85 l48 24 0 410 0 410 -282 -2 -283 -3 0 -140 0 -140
110 -5 110 -5 5 -149 c4 -116 2 -153 -8 -163 -14 -13 -96 -19 -202 -13 -155 7
-254 98 -305 280 -29 101 -27 338 3 445 38 132 99 208 207 256 70 30 276 38
385 14 41 -9 89 -19 106 -22 l32 -5 31 133 c36 151 37 146 -46 174 -125 40
-406 58 -545 35z"/>
<path d="M8268 3190 l-23 -6 -5 -284 -5 -285 -239 -3 c-170 -2 -243 1 -253 9
-11 10 -13 61 -13 278 0 146 0 272 0 279 0 9 -40 12 -165 12 -162 0 -165 0
-170 -22 -3 -13 -4 -358 -3 -768 l3 -745 167 -3 168 -2 2 327 3 328 252 3 253
2 2 -327 3 -328 168 -3 167 -2 0 769 0 770 -145 3 c-79 2 -155 1 -167 -2z"/>
<path d="M10088 3192 l-148 -3 0 -770 0 -770 122 3 c114 3 123 4 126 23 7 45
10 46 79 10 102 -53 176 -68 312 -64 108 4 121 6 183 37 147 72 211 234 212
537 0 281 -63 422 -224 499 -62 30 -70 31 -190 30 -111 0 -133 -3 -194 -27
-37 -15 -72 -27 -77 -27 -5 0 -9 116 -9 259 l0 259 -22 3 c-13 2 -89 3 -170 1z
m469 -758 c15 -11 39 -42 53 -70 23 -46 25 -59 25 -194 0 -167 -14 -220 -68
-261 -27 -20 -43 -24 -107 -24 -49 0 -93 7 -127 20 l-53 19 0 247 0 247 43 16
c23 8 49 17 57 20 8 3 45 4 82 3 49 -2 75 -8 95 -23z"/>
<path d="M6103 3141 c-24 -11 -55 -38 -72 -62 -25 -34 -31 -52 -31 -95 0 -90
31 -141 105 -175 67 -31 155 -19 208 29 56 50 73 152 37 222 -43 84 -160 122
-247 81z"/>
<path d="M6640 2846 c0 -139 -2 -155 -17 -159 -10 -3 -43 -11 -73 -17 -93 -21
-90 -17 -90 -131 0 -115 -4 -111 103 -113 l72 -1 5 -270 c6 -324 14 -359 95
-440 74 -73 127 -90 290 -90 83 0 144 5 168 13 l38 14 -3 116 -3 117 -57 -3
c-75 -4 -128 11 -161 46 l-27 28 2 235 3 234 118 3 117 3 0 134 0 135 -120 0
-120 0 0 150 0 150 -170 0 -170 0 0 -154z"/>
<path d="M6022 2178 l3 -523 165 0 165 0 0 520 0 520 -168 3 -167 2 2 -522z"/>
<path d="M8764 2687 c-3 -8 -4 -196 -2 -418 3 -393 4 -406 26 -460 28 -70 80
-125 146 -154 139 -61 377 -47 529 33 51 26 66 22 67 -19 0 -22 17 -25 133
-21 l97 3 -2 522 -3 522 -160 0 -160 0 -3 -374 c-1 -258 -6 -378 -13 -388 -7
-7 -43 -23 -81 -34 -110 -34 -185 -18 -221 46 -8 14 -14 135 -17 385 l-5 365
-163 3 c-131 2 -163 0 -168 -11z"/>
<path d="M1102 1668 c3 -7 13 -15 22 -16 12 -3 17 1 14 10 -3 7 -13 15 -22 16
-12 3 -17 -1 -14 -10z"/>
<path d="M1170 1601 c0 -15 6 -21 21 -21 14 0 19 5 17 17 -5 26 -38 29 -38 4z"/>
<path d="M1230 1525 c0 -17 22 -45 36 -45 25 0 13 44 -13 48 -13 2 -23 1 -23
-3z"/>
<path d="M1310 1431 c0 -25 14 -41 36 -41 26 0 32 18 12 38 -14 14 -48 16 -48
3z"/>
<path d="M1430 1351 c0 -23 37 -38 53 -22 7 7 6 15 -3 26 -18 22 -50 19 -50
-4z"/>
<path d="M1697 1353 c-17 -17 -6 -34 20 -31 36 4 45 38 10 38 -13 0 -27 -3
-30 -7z"/>
<path d="M1564 1335 c-13 -32 32 -49 55 -21 10 12 8 17 -8 25 -27 15 -41 14
-47 -4z"/>
</g>
</svg>
