<?xml version="1.0" standalone="no"?>
<!DOCTYPE svg PUBLIC "-//W3C//DTD SVG 20010904//EN"
 "http://www.w3.org/TR/2001/REC-SVG-20010904/DTD/svg10.dtd">
<svg version="1.0" xmlns="http://www.w3.org/2000/svg"
 width="526.000000pt" height="100.000000pt" viewBox="0 0 526.000000 100.000000"
 preserveAspectRatio="xMidYMid meet">

<g transform="translate(0.000000,100.000000) scale(0.100000,-0.100000)"
fill="#000000" stroke="none">
<path d="M3337 976 c-64 -27 -97 -50 -208 -148 -83 -73 -140 -151 -194 -263
-28 -60 -42 -77 -89 -108 -78 -52 -74 -24 9 60 35 37 62 70 59 75 -3 4 -30 5
-60 2 -53 -7 -54 -6 -52 17 3 20 -1 24 -22 22 -50 -6 -172 -62 -167 -77 5 -15
128 -14 147 0 8 6 37 14 65 18 l49 6 -35 -37 c-20 -21 -46 -54 -59 -73 -13
-19 -29 -38 -35 -42 -6 -5 -4 -13 7 -24 22 -22 57 -13 102 26 l34 30 -5 -77
c-10 -142 27 -207 115 -207 88 1 157 56 391 309 77 84 91 95 85 70 -4 -16 -12
-43 -20 -60 -7 -16 -24 -58 -38 -91 -41 -100 -94 -182 -168 -260 -38 -40 -70
-76 -71 -81 -1 -4 -7 -7 -14 -7 -7 1 -11 -3 -10 -8 3 -17 -23 -21 -29 -4 -8
21 31 85 100 166 30 35 53 66 51 69 -14 14 -173 -136 -200 -190 -36 -69 36
-115 110 -70 56 34 152 130 194 195 53 81 105 209 125 308 18 89 20 115 7 123
-6 3 -99 -81 -208 -187 -208 -202 -259 -244 -309 -254 -94 -18 -112 135 -37
314 14 34 28 60 31 57 3 -2 27 29 53 69 97 147 282 287 401 302 56 8 89 -10
77 -41 -8 -20 -8 -20 -8 0 -1 15 -7 11 -27 -18 -22 -32 -206 -179 -237 -190
-18 -6 3 -27 27 -27 23 0 135 70 196 123 91 80 114 146 60 175 -33 17 -131 9
-200 -17 -30 -11 -55 -19 -57 -17 -7 7 102 48 146 56 43 7 43 8 11 9 -19 0
-61 -10 -93 -23z m-583 -387 c-13 -13 -31 -19 -45 -17 -24 3 -24 4 6 20 44 25
65 23 39 -3z m586 -136 c-41 -53 -142 -154 -148 -149 -3 3 -12 1 -21 -6 -9 -6
29 32 84 85 55 53 101 96 103 97 2 0 -6 -12 -18 -27z m28 -215 c-26 -45 -130
-163 -158 -178 -35 -18 -16 16 36 66 28 28 68 75 89 107 42 64 68 68 33 5z
m-130 5 c-71 -84 -116 -144 -127 -171 -20 -47 -24 -33 -6 19 10 28 38 67 78
107 58 59 88 83 55 45z"/>
<path d="M570 983 c-8 -2 -62 -28 -120 -56 -82 -41 -122 -68 -182 -125 -78
-75 -156 -178 -201 -267 -32 -64 -67 -178 -67 -218 0 -45 38 -115 71 -132 34
-18 111 -19 161 -1 104 37 393 294 364 323 -8 9 -107 -88 -100 -98 8 -14 -157
-139 -230 -173 -77 -37 -132 -56 -106 -36 12 8 10 9 -10 5 -73 -17 -87 87 -31
230 82 210 235 384 419 477 80 40 152 51 152 24 0 -8 -20 -41 -44 -73 -35 -46
-41 -59 -28 -62 9 -2 36 18 64 47 56 59 64 99 23 126 -23 15 -101 21 -135 9z
m-326 -265 c-4 -7 -23 -37 -42 -67 -41 -63 -85 -159 -118 -251 -17 -48 -23
-58 -23 -37 -1 15 6 44 14 64 8 20 13 38 11 41 -9 9 56 127 107 195 46 61 70
87 51 55z m-182 -460 c2 -20 0 -34 -4 -32 -4 3 -7 26 -7 52 1 49 5 42 11 -20z"/>
<path d="M825 788 c-91 -104 -201 -367 -166 -400 10 -11 26 1 82 61 39 40 72
71 75 68 2 -2 0 -16 -6 -31 -5 -15 -10 -41 -10 -57 0 -59 50 -47 131 32 65 64
50 76 -23 19 -47 -38 -53 -40 -59 -23 -11 25 -10 35 0 29 5 -3 12 11 16 31 6
34 -3 52 -27 53 -4 0 -39 -31 -78 -70 -38 -38 -70 -64 -70 -59 0 6 14 44 31
85 34 83 108 201 163 262 20 21 33 42 29 46 -17 16 -45 2 -88 -46z m12 -350
c-3 -8 -6 -5 -6 6 -1 11 2 17 5 13 3 -3 4 -12 1 -19z"/>
<path d="M1690 815 c-12 -23 -19 -25 -77 -25 -40 0 -62 -4 -58 -10 4 -6 -8
-10 -27 -10 -33 0 -147 -26 -157 -35 -15 -15 18 -16 86 -2 93 20 193 32 193
24 0 -4 -11 -32 -25 -63 -14 -31 -30 -75 -36 -97 -5 -23 -15 -58 -20 -78 -11
-45 -50 -60 -80 -33 -13 11 -37 18 -67 18 l-48 1 31 42 c36 50 53 59 70 37 15
-21 37 -10 28 14 -9 23 -23 32 -51 32 -30 0 -136 -104 -128 -125 3 -9 -10 -25
-39 -45 -75 -51 -81 -35 -24 67 34 61 34 63 13 63 -26 0 -70 -37 -84 -71 -12
-28 -108 -105 -118 -94 -8 8 30 58 80 107 27 27 46 52 43 58 -4 6 -28 7 -62 4
-54 -7 -55 -6 -44 14 18 33 -3 36 -77 11 -80 -28 -112 -46 -112 -66 0 -11 13
-13 64 -9 35 2 72 8 82 14 27 13 104 24 104 14 0 -5 -14 -21 -31 -38 -46 -43
-92 -113 -85 -130 9 -22 52 -16 86 12 17 15 32 25 34 23 2 -2 9 -14 15 -26 19
-38 59 -29 131 28 28 22 50 29 109 34 88 9 94 -7 13 -37 -29 -11 -52 -25 -52
-32 0 -8 -13 -19 -29 -26 -60 -24 -93 -90 -46 -90 41 0 173 92 201 139 10 16
26 32 35 34 17 5 18 -1 12 -54 -7 -68 4 -89 49 -89 21 0 42 13 77 48 44 44 49
47 60 30 19 -30 48 -21 91 31 42 50 80 71 80 46 0 -8 -11 -49 -25 -92 -33
-106 -55 -201 -55 -242 0 -55 24 -22 54 74 15 46 35 105 46 131 l20 46 26 -17
c33 -22 59 -15 113 32 86 73 97 159 24 184 -33 10 -39 9 -80 -21 l-46 -31 6
28 6 28 -14 -30 c-15 -30 -15 -30 -9 18 9 65 -8 59 -37 -15 -15 -39 -31 -64
-45 -69 -20 -7 -20 -5 -11 31 12 42 -1 70 -32 70 -26 0 -88 -62 -108 -107 -17
-39 -119 -136 -134 -127 -17 10 40 213 94 337 21 45 31 57 49 57 20 1 21 2 6
11 -17 9 -17 12 -2 34 20 31 2 33 -19 3 -9 -13 -16 -18 -16 -11 -1 6 4 15 9
18 14 9 12 25 -3 25 -8 0 -20 -11 -27 -25z m10 -59 c0 -2 -18 -49 -40 -104
-22 -54 -40 -105 -40 -112 0 -7 -3 -11 -6 -7 -3 3 4 36 16 74 12 37 23 73 24
78 4 24 29 75 37 75 5 0 9 -2 9 -4z m-659 -166 c-24 -21 -67 -28 -56 -9 8 12
43 28 65 28 10 0 8 -6 -9 -19z m819 -30 c0 -6 -7 -26 -14 -45 -12 -27 -21 -35
-41 -35 -23 0 -25 2 -14 23 24 46 69 83 69 57z m250 -11 c0 -34 -30 -87 -67
-120 -38 -33 -58 -32 -28 1 10 11 15 23 12 27 -4 3 -7 2 -7 -4 0 -5 -6 -10
-12 -11 -7 -1 -25 -3 -40 -6 -21 -3 -25 -1 -21 12 10 26 35 63 40 58 3 -2 -3
-16 -13 -30 -31 -49 -7 -37 31 14 32 44 74 78 98 80 4 0 7 -9 7 -21z m-513
-81 c-3 -8 -6 -5 -6 6 -1 11 2 17 5 13 3 -3 4 -12 1 -19z m203 -12 c0 -2 -7
-9 -15 -16 -12 -10 -15 -10 -15 4 0 9 7 16 15 16 8 0 15 -2 15 -4z m-213 -38
c-3 -7 -5 -2 -5 12 0 14 2 19 5 13 2 -7 2 -19 0 -25z m406 -3 c-19 -25 -33
-32 -33 -16 0 9 38 41 48 41 1 0 -5 -11 -15 -25z m72 -4 c-11 -10 -31 -22 -45
-26 -21 -6 -19 -3 10 18 42 30 63 35 35 8z m-640 -21 c-25 -28 -114 -84 -122
-77 -10 11 18 37 72 68 59 34 75 37 50 9z"/>
<path d="M2347 820 c-56 -45 -158 -224 -191 -339 -19 -63 -19 -71 -6 -91 8
-12 24 -1 86 60 60 58 75 69 70 50 -19 -75 -19 -100 -1 -107 11 -4 33 2 54 14
l36 21 26 -29 c18 -20 36 -29 56 -29 33 0 132 60 172 103 22 24 15 22 -67 -18
-109 -53 -125 -56 -120 -18 2 23 11 30 53 45 85 30 111 84 51 106 -38 14 -93
1 -80 -20 4 -6 3 -8 -2 -5 -14 8 -28 -3 -57 -46 -30 -45 -73 -81 -86 -73 -5 4
-11 3 -14 -1 -2 -5 -2 -2 0 5 1 8 3 21 4 30 0 14 2 13 10 -3 8 -17 9 -16 6 7
-2 15 0 25 4 22 5 -3 9 8 9 24 0 64 -43 45 -143 -66 -16 -18 -32 -31 -34 -28
-2 2 9 39 26 81 33 82 100 191 162 266 21 25 36 49 32 53 -11 11 -30 6 -56
-14z m200 -236 c-3 -3 -12 -4 -19 -1 -8 3 -5 6 6 6 11 1 17 -2 13 -5z m30 -30
c4 -11 -75 -59 -83 -51 -10 9 10 38 35 52 28 15 43 15 48 -1z"/>
<path d="M4491 821 c-11 -11 -22 -17 -25 -14 -8 8 -81 -110 -106 -174 -29 -72
-26 -70 -50 -48 -32 29 -72 12 -114 -49 -60 -89 -6 -199 70 -141 28 21 34 18
34 -14 0 -48 16 -78 49 -89 27 -10 35 -8 61 14 16 14 30 31 30 37 0 6 -10 1
-23 -11 -13 -12 -27 -22 -31 -22 -5 0 4 10 20 23 16 12 33 22 38 22 5 0 11 6
14 13 6 20 -13 14 -53 -18 -20 -16 -41 -27 -46 -24 -14 8 -10 102 7 174 19 83
91 233 137 288 21 24 37 46 37 48 0 12 -32 2 -49 -15z m-177 -286 c10 -26 -12
-63 -54 -91 -22 -15 -43 -24 -47 -21 -8 9 17 65 45 98 26 32 47 37 56 14z m20
-165 c5 -45 4 -60 -4 -50 -9 13 -15 129 -6 119 2 -2 6 -33 10 -69z"/>
<path d="M5145 808 c-38 -35 -139 -210 -155 -268 -7 -25 -25 -46 -61 -72 -69
-51 -82 -50 -64 3 8 22 24 53 35 69 25 35 25 50 2 50 -28 0 -79 -54 -93 -98
-10 -34 -18 -44 -46 -53 -28 -9 -37 -8 -52 5 -11 10 -36 16 -66 16 l-49 0 41
35 c22 19 46 48 53 65 11 27 10 33 -5 50 -10 11 -26 20 -35 20 -33 0 -105 -31
-132 -57 -31 -30 -39 -83 -13 -83 8 0 15 8 15 18 0 26 38 59 89 77 54 19 61
19 61 1 0 -10 -148 -154 -179 -173 -2 -1 -1 -9 2 -17 5 -13 14 -12 59 9 50 24
149 35 147 18 0 -5 -39 -27 -87 -50 -77 -38 -196 -123 -148 -106 10 3 -6 -18
-38 -48 -34 -34 -56 -64 -56 -77 0 -19 5 -22 41 -22 95 0 260 129 296 231 14
40 25 55 51 67 31 15 33 15 48 -6 22 -32 52 -27 113 19 36 27 51 35 46 22 -23
-56 -33 -103 -23 -109 5 -4 14 0 19 7 5 8 9 10 9 4 1 -5 7 5 16 24 14 32 15
33 33 17 24 -22 98 -23 142 -2 47 23 105 73 96 82 -4 5 -16 3 -25 -4 -80 -57
-168 -84 -201 -63 -26 16 16 85 97 162 40 39 64 66 53 59 -12 -6 -25 -8 -30
-5 -5 3 -30 -11 -55 -30 -25 -19 -46 -32 -46 -30 0 30 101 185 146 225 l38 33
-34 -5 c-30 -4 -31 -4 -15 9 11 7 13 13 7 13 -7 0 -28 -15 -47 -32z m-455
-436 c0 -20 -62 -93 -117 -137 -32 -26 -57 -51 -56 -55 3 -9 -89 -50 -111 -50
-28 0 -17 35 23 74 37 36 237 175 254 176 4 0 7 -4 7 -8z"/>
<path d="M1293 673 c-7 -2 -13 -16 -13 -29 0 -19 5 -24 25 -24 30 0 55 38 34
51 -15 10 -27 10 -46 2z"/>
<path d="M4922 668 c-7 -7 -12 -20 -12 -31 0 -24 48 -20 64 6 18 29 -27 50
-52 25z"/>
<path d="M4155 562 c-66 -117 -102 -165 -116 -156 -12 7 -11 76 2 130 6 25 9
48 5 51 -4 4 -43 -31 -87 -78 -77 -80 -81 -82 -75 -51 5 27 26 80 54 135 2 4
-1 7 -7 7 -6 0 -21 -15 -32 -32 -12 -18 -18 -24 -15 -13 5 18 5 18 -6 3 -7 -9
-20 -30 -29 -46 -9 -16 -37 -43 -63 -60 -57 -39 -66 -28 -37 49 25 64 18 76
-50 85 -41 6 -49 3 -82 -25 -39 -34 -71 -104 -65 -142 5 -38 57 -38 101 0 41
37 45 38 49 9 2 -17 11 -24 33 -26 24 -2 39 5 69 35 l38 38 -6 -31 c-5 -23 -2
-36 9 -48 25 -25 41 -20 90 31 42 45 45 46 45 23 0 -71 69 -93 115 -39 37 45
134 244 123 254 -2 2 -30 -45 -63 -103z m-445 -10 c0 -5 -20 -30 -45 -56 -25
-27 -45 -45 -45 -42 0 18 32 66 56 85 30 23 34 25 34 13z m147 -104 c-3 -8 -6
-5 -6 6 -1 11 2 17 5 13 3 -3 4 -12 1 -19z"/>
<path d="M220 235 c-25 -13 -41 -24 -37 -25 11 0 87 39 87 45 0 7 0 7 -50 -20z"/>
</g>
</svg>
